<?xml version="1.0" encoding="UTF-8" standalone="no"?>
<!-- Created with Inkscape (http://www.inkscape.org/) -->

<svg
   width="160"
   height="160"
   viewBox="0 0 42.333333 42.333333"
   version="1.1"
   id="svg5"
   xml:space="preserve"
   xmlns="http://www.w3.org/2000/svg"
   xmlns:svg="http://www.w3.org/2000/svg"><defs
     id="defs2"><rect
       x="186.69025"
       y="297.27747"
       width="228.30908"
       height="96.317894"
       id="rect790" /></defs><g
     id="layer1"><g
       id="g1156"
       style="fill:#1d1f26;fill-opacity:1"
       transform="matrix(0.21971039,0,0,0.21971039,-1.5027385,-2.8740405)"><text
         xml:space="preserve"
         transform="matrix(0.74570691,0,0,0.74570691,-114.02359,-97.419671)"
         id="text788"
         style="font-size:67.4062px;font-family:Lobster;-inkscape-font-specification:'Lobster, Normal';white-space:pre;shape-inside:url(#rect790);display:inline;fill:#1d1f26;fill-opacity:1"><tspan
           x="186.68945"
           y="359.62808"
           id="tspan2661">Arsenal</tspan></text><g
         style="fill:#1d1f26;fill-opacity:1"
         id="g1092"
         transform="matrix(0.16915322,0,0,0.16915322,59.576981,42.352256)"><g
           id="g1080"
           style="fill:#1d1f26;fill-opacity:1">
	<g
   id="g1078"
   style="fill:#1d1f26;fill-opacity:1">
		<g
   id="g1076"
   style="fill:#1d1f26;fill-opacity:1">
			<path
   d="m 392.42,118.067 -17.067,-102.4 c -0.418,-2.509 -1.929,-4.693 -4.113,-5.965 -2.193,-1.289 -4.838,-1.527 -7.228,-0.649 L 281.597,39.022 V 8.533 C 281.597,3.814 277.783,0 273.064,0 h -34.133 c -4.71,0 -8.533,3.814 -8.533,8.533 v 30.49 L 147.983,9.054 c -2.398,-0.887 -5.035,-0.648 -7.219,0.649 -2.185,1.271 -3.695,3.456 -4.113,5.965 l -17.067,102.4 c -0.538,3.183 0.785,6.4 3.396,8.303 l 61.67,44.851 c -3.61,8.235 -6.963,16.572 -9.967,25.045 h 47.181 c 4.719,0 8.533,3.814 8.533,8.533 0,4.719 -3.814,8.533 -8.533,8.533 h -52.787 c -1.698,5.649 -3.217,11.341 -4.642,17.067 h 40.363 c 4.719,0 8.533,3.814 8.533,8.533 0,4.719 -3.814,8.533 -8.533,8.533 h -44.151 c -4.608,23.202 -7.049,46.865 -7.049,70.647 v 61.722 l 14.532,5.803 c 56.576,20.582 119.168,20.574 175.991,-0.085 l 14.276,-5.999 v -61.44 c 0,-50.654 -10.752,-100.804 -30.993,-146.927 l 61.619,-44.817 c 2.612,-1.903 3.926,-5.12 3.397,-8.303 z M 230.398,94.02 c -1.314,1.698 -2.534,3.465 -3.814,5.188 -1.63,2.176 -3.251,4.352 -4.83,6.562 -1.664,2.338 -3.294,4.71 -4.907,7.083 -1.442,2.142 -2.867,4.292 -4.275,6.46 -1.681,2.603 -3.345,5.214 -4.966,7.851 -1.058,1.741 -2.082,3.507 -3.123,5.265 -4.437,7.526 -8.695,15.147 -12.578,22.963 l -54.622,-39.723 14.515,-87.074 78.601,28.578 V 94.02 Z M 264.531,51.2 v 45.747 0.06 73.66 c 0,4.71 -3.823,8.533 -8.533,8.533 -4.702,0 -8.533,-3.823 -8.533,-8.533 V 97.007 96.956 51.2 17.067 h 17.067 V 51.2 Z M 320.1,155.392 c -1.425,-2.876 -2.995,-5.675 -4.497,-8.516 -0.879,-1.664 -1.732,-3.337 -2.637,-4.983 -1.519,-2.765 -3.115,-5.487 -4.71,-8.218 -1.263,-2.159 -2.526,-4.318 -3.831,-6.46 -1.536,-2.5 -3.106,-4.975 -4.693,-7.45 -1.476,-2.287 -2.987,-4.548 -4.514,-6.81 -1.604,-2.364 -3.208,-4.719 -4.864,-7.04 -1.562,-2.202 -3.183,-4.361 -4.804,-6.528 -1.323,-1.784 -2.586,-3.61 -3.951,-5.367 V 57.173 l 78.609,-28.578 14.507,87.074 z"
   id="path1072"
   style="fill:#1d1f26;fill-opacity:1" />
			<path
   d="m 255.885,418.092 c -31.821,0 -63.599,-5.513 -93.841,-16.512 l -8.439,-3.371 v 11.392 c 0,56.465 45.935,102.4 102.4,102.4 56.457,0 102.4,-45.935 102.4,-102.4 v -11.554 l -8.064,3.388 c -30.533,11.111 -62.525,16.657 -94.456,16.657 z"
   id="path1074"
   style="fill:#1d1f26;fill-opacity:1" />
		</g>
	</g>
</g></g></g></g></svg>
